<?xml version="1.0" encoding="UTF-8" ?>
<!DOCTYPE svg PUBLIC "-//W3C//DTD SVG 1.1//EN" "http://www.w3.org/Graphics/SVG/1.1/DTD/svg11.dtd">
<svg width="512pt" height="512pt" viewBox="0 0 512 512" version="1.1"
    xmlns="http://www.w3.org/2000/svg">
    <g id="#aab2bdff">
        <path fill="#aab2bd" opacity="1.00" d=" M 413.87 32.56 C 425.45 32.34 437.54 31.21 448.58 35.51 C 462.31 40.68 473.20 52.73 476.94 66.93 C 478.93 74.09 478.71 81.58 478.68 88.94 C 478.69 173.28 478.67 257.63 478.69 341.97 C 478.81 349.52 478.13 357.24 475.19 364.27 C 469.53 378.63 456.31 389.69 441.14 392.64 C 432.14 394.21 422.93 393.69 413.84 393.49 C 427.46 391.85 440.53 384.76 448.27 373.27 C 453.83 365.32 456.66 355.61 456.58 345.93 C 456.57 260.62 456.57 175.31 456.57 90.01 C 456.54 82.33 457.06 74.48 454.93 67.01 C 451.48 54.04 442.12 42.79 429.96 37.08 C 424.90 34.68 419.41 33.29 413.87 32.56 Z" />
        <path fill="#aab2bd" opacity="1.00" d=" M 194.24 393.30 C 196.48 393.12 198.73 392.97 200.98 392.94 C 233.32 393.01 265.67 392.95 298.02 392.98 C 304.59 393.02 311.17 392.69 317.73 393.30 C 317.91 411.30 317.80 429.31 317.78 447.31 C 321.85 447.30 325.93 447.24 330.00 447.51 C 323.65 447.20 317.33 448.07 310.99 448.05 C 282.34 448.00 253.68 448.04 225.03 448.03 C 214.69 447.76 204.31 448.64 194.01 447.54 C 194.38 429.46 193.92 411.38 194.24 393.30 Z" />
    </g>
    <g id="#ccd1d9ff">
        <path fill="#ccd1d9" opacity="1.00" d=" M 36.92 61.83 C 43.61 44.53 61.47 32.40 80.04 32.61 C 191.31 32.55 302.60 32.66 413.87 32.56 C 419.41 33.29 424.90 34.68 429.96 37.08 C 442.12 42.79 451.48 54.04 454.93 67.01 C 457.06 74.48 456.54 82.33 456.57 90.01 C 456.57 175.31 456.57 260.62 456.58 345.93 C 456.66 355.61 453.83 365.32 448.27 373.27 C 440.53 384.76 427.46 391.85 413.84 393.49 C 381.81 393.32 349.76 393.70 317.73 393.30 C 311.17 392.69 304.59 393.02 298.02 392.98 C 265.67 392.95 233.32 393.01 200.98 392.94 C 198.73 392.97 196.48 393.12 194.24 393.30 C 161.18 393.69 128.10 393.36 95.02 393.47 C 85.05 393.27 74.72 394.40 65.14 390.93 C 50.36 386.03 38.54 373.21 34.95 358.04 C 33.30 351.81 33.56 345.33 33.56 338.95 C 33.56 254.28 33.56 169.60 33.55 84.93 C 33.35 77.12 33.85 69.11 36.92 61.83 M 77.47 87.33 C 76.90 91.85 77.23 96.41 77.17 100.95 C 77.14 162.32 77.23 223.69 77.13 285.06 C 76.98 291.45 76.12 298.98 81.22 303.85 C 85.67 308.88 92.83 308.56 98.94 308.45 C 205.62 308.39 312.30 308.45 418.97 308.42 C 425.05 308.71 431.22 305.35 433.63 299.65 C 435.65 295.05 434.79 289.88 434.95 285.00 C 434.95 220.34 434.92 155.68 434.96 91.02 C 435.24 85.56 432.52 79.97 427.70 77.24 C 422.96 74.28 417.14 75.16 411.84 75.18 C 305.19 75.40 198.54 75.15 91.89 75.31 C 85.01 75.17 78.49 80.48 77.47 87.33 M 246.40 339.45 C 241.04 340.54 236.40 344.74 234.91 350.03 C 232.04 358.52 238.47 368.24 247.22 369.47 C 256.53 371.20 266.00 362.36 264.65 352.92 C 264.17 344.07 254.97 337.43 246.40 339.45 Z" />
        <path fill="#ccd1d9" opacity="1.00" d=" M 182.38 447.49 C 186.24 447.23 190.14 447.19 194.01 447.54 C 204.31 448.64 214.69 447.76 225.03 448.03 C 253.68 448.04 282.34 448.00 310.99 448.05 C 317.33 448.07 323.65 447.20 330.00 447.51 C 337.31 448.43 343.95 453.43 346.76 460.26 C 349.35 466.31 348.18 473.02 348.43 479.40 C 286.81 479.40 225.19 479.40 163.57 479.40 C 163.68 474.59 163.26 469.75 163.88 464.97 C 165.22 455.88 173.23 448.33 182.38 447.49 Z" />
    </g>
    <g id="#66d4f1ff">
        <path fill="#66d4f1" opacity="1.00" d=" M 77.47 87.33 C 78.49 80.48 85.01 75.17 91.89 75.31 C 198.54 75.15 305.19 75.40 411.84 75.18 C 411.69 94.80 412.11 114.42 411.66 134.03 C 410.66 166.74 398.92 198.95 378.82 224.76 C 356.84 253.28 324.63 273.77 289.43 281.41 C 270.24 286.12 250.35 285.23 230.77 284.99 C 232.19 281.45 232.58 275.98 237.13 275.13 C 242.92 275.06 247.06 280.77 252.84 280.79 C 256.35 279.77 258.64 276.60 261.32 274.31 C 263.38 272.10 266.27 270.17 266.94 267.05 C 266.69 261.52 261.67 257.52 261.24 252.03 C 261.44 247.60 266.51 246.74 269.86 245.55 C 272.66 244.53 276.77 243.68 277.03 240.03 C 277.51 235.02 277.55 229.92 276.97 224.92 C 276.37 221.07 271.82 220.44 268.82 219.27 C 265.52 218.11 260.59 217.20 260.37 212.85 C 260.73 207.13 266.60 202.91 265.94 197.03 C 263.45 192.44 259.12 189.13 255.38 185.57 C 252.26 182.44 248.04 185.13 244.95 186.81 C 241.81 188.40 237.80 191.36 234.41 188.72 C 230.47 184.62 231.33 177.75 227.11 173.86 C 223.31 172.29 219.00 173.03 214.99 172.86 C 212.54 173.10 209.51 172.58 207.64 174.54 C 204.50 178.65 204.70 184.43 201.40 188.44 C 197.74 191.71 193.18 188.08 189.71 186.37 C 187.22 185.18 184.26 183.08 181.49 184.64 C 178.15 186.82 175.56 189.94 172.72 192.70 C 171.21 194.43 169.06 196.32 169.44 198.87 C 170.41 203.94 174.80 207.80 175.12 213.03 C 174.72 217.30 169.84 218.17 166.55 219.33 C 163.69 220.45 159.56 221.00 158.64 224.45 C 157.94 228.26 158.19 232.16 158.20 236.01 C 158.38 238.11 158.12 240.59 159.67 242.27 C 164.01 245.90 170.74 245.20 174.73 249.34 C 178.37 256.19 168.08 261.76 170.44 268.66 C 173.77 273.16 177.85 277.27 182.35 280.60 C 188.75 282.68 193.52 274.49 199.93 275.72 C 203.78 277.05 204.15 281.72 205.46 285.00 C 162.69 285.29 119.90 285.18 77.13 285.06 C 77.23 223.69 77.14 162.32 77.17 100.95 C 77.23 96.41 76.90 91.85 77.47 87.33 M 289.34 98.41 C 286.27 99.53 283.24 100.82 280.35 102.36 C 274.19 105.84 282.25 115.40 275.85 118.72 C 271.96 119.51 267.95 118.22 264.05 118.95 C 261.92 119.93 261.36 122.44 260.45 124.38 C 259.44 127.21 257.93 129.97 257.79 133.02 C 259.26 137.76 266.02 138.92 266.81 143.98 C 266.30 149.07 259.36 150.09 258.18 154.86 C 258.99 159.38 261.07 163.72 263.35 167.69 C 267.53 171.19 274.06 166.11 278.20 169.79 C 281.06 173.98 277.10 179.82 280.03 184.00 C 283.93 186.48 288.46 188.24 293.02 189.06 C 297.94 187.85 299.02 181.04 304.00 180.01 C 309.50 180.32 310.58 188.34 316.05 188.70 C 320.34 187.58 324.63 185.83 328.29 183.31 C 331.40 179.11 326.89 173.14 329.96 168.93 C 333.02 166.29 337.38 168.49 341.00 168.19 C 345.10 168.73 346.00 163.93 347.27 161.10 C 348.25 158.04 350.89 153.95 347.76 151.29 C 345.29 148.35 339.96 146.64 340.56 142.06 C 342.09 137.71 347.72 136.36 349.27 132.00 C 349.43 128.95 347.69 126.18 346.68 123.38 C 345.58 120.91 344.37 117.26 340.97 117.62 C 337.01 117.14 331.64 120.01 328.79 116.15 C 327.11 112.05 329.61 107.27 327.85 103.18 C 326.13 100.95 323.12 100.41 320.68 99.29 C 318.25 98.57 315.67 96.86 313.10 97.86 C 309.85 100.13 308.22 104.07 304.88 106.22 C 297.80 108.65 296.47 95.75 289.34 98.41 M 223.20 111.15 C 220.71 111.22 218.79 113.50 219.02 115.95 C 219.02 123.64 218.78 131.35 219.15 139.03 C 219.63 143.91 227.69 143.92 228.12 139.02 C 228.58 131.36 228.32 123.65 228.26 115.98 C 228.57 113.14 225.99 110.75 223.20 111.15 M 196.26 128.30 C 193.60 129.47 192.28 133.28 194.57 135.46 C 198.82 140.17 203.57 144.43 207.90 149.07 C 209.79 150.86 211.96 153.57 214.92 152.61 C 218.20 151.87 219.50 147.30 217.04 144.96 C 212.77 140.26 208.00 136.05 203.65 131.44 C 201.75 129.53 199.23 126.76 196.26 128.30 M 179.16 154.08 C 175.44 156.02 176.46 162.76 180.91 162.84 C 188.63 163.15 196.38 163.10 204.10 162.88 C 208.76 163.05 210.05 155.86 205.97 154.04 C 201.40 153.07 196.68 153.73 192.05 153.57 C 187.76 153.71 183.38 153.08 179.16 154.08 M 308.27 221.27 C 304.91 223.25 305.86 229.49 309.96 229.82 C 317.95 230.16 326.00 230.14 333.98 229.83 C 338.57 229.58 339.25 222.11 334.89 220.93 C 329.64 220.11 324.29 220.77 319.00 220.56 C 315.43 220.68 311.69 220.07 308.27 221.27 M 299.21 231.20 C 296.76 232.29 295.19 235.71 297.10 237.97 C 299.88 241.46 303.35 244.32 306.39 247.58 C 309.13 250.18 311.47 253.28 314.68 255.33 C 317.93 257.01 322.06 253.51 321.04 250.00 C 320.18 247.73 318.20 246.17 316.58 244.46 C 312.47 240.55 308.60 236.40 304.49 232.50 C 303.16 231.10 301.05 230.29 299.21 231.20 M 288.32 241.29 C 286.60 242.13 286.14 244.15 286.14 245.90 C 285.96 251.58 286.21 257.27 286.06 262.96 C 286.26 265.53 285.55 268.60 287.32 270.76 C 289.75 273.79 295.46 272.02 295.38 268.00 C 295.64 260.35 295.61 252.66 295.39 245.01 C 295.57 241.40 291.16 239.67 288.32 241.29 Z" />
        <path fill="#66d4f1" opacity="1.00" d=" M 298.38 126.53 C 304.73 124.52 312.12 126.41 316.63 131.33 C 321.71 136.61 322.95 145.11 319.52 151.60 C 316.24 158.34 308.36 162.40 300.97 161.11 C 293.04 160.06 286.46 153.01 285.93 145.04 C 285.10 136.94 290.59 128.82 298.38 126.53 Z" />
        <path fill="#66d4f1" opacity="1.00" d=" M 214.38 208.54 C 223.21 207.00 232.67 210.88 237.86 218.18 C 244.18 226.59 243.92 239.12 237.35 247.31 C 231.81 254.63 221.86 258.17 212.94 256.05 C 205.47 254.43 198.94 249.02 195.99 241.96 C 193.10 235.30 193.44 227.33 196.94 220.96 C 200.41 214.40 207.05 209.69 214.38 208.54 Z" />
    </g>
    <g id="#4fc0e8ff">
        <path fill="#4fc0e8" opacity="1.00" d=" M 411.84 75.18 C 417.14 75.16 422.96 74.28 427.70 77.24 C 432.52 79.97 435.24 85.56 434.96 91.02 C 434.92 155.68 434.95 220.34 434.95 285.00 C 434.79 289.88 435.65 295.05 433.63 299.65 C 431.22 305.35 425.05 308.71 418.97 308.42 C 312.30 308.45 205.62 308.39 98.94 308.45 C 92.83 308.56 85.67 308.88 81.22 303.85 C 76.12 298.98 76.98 291.45 77.13 285.06 C 119.90 285.18 162.69 285.29 205.46 285.00 C 206.41 287.76 207.48 291.59 211.01 291.78 C 215.90 292.21 220.88 292.31 225.75 291.67 C 228.93 291.13 229.81 287.57 230.77 284.99 C 250.35 285.23 270.24 286.12 289.43 281.41 C 324.63 273.77 356.84 253.28 378.82 224.76 C 398.92 198.95 410.66 166.74 411.66 134.03 C 412.11 114.42 411.69 94.80 411.84 75.18 Z" />
    </g>
    <g id="#f76c82ff">
        <path fill="#f76c82" opacity="1.00" d=" M 289.34 98.41 C 296.47 95.75 297.80 108.65 304.88 106.22 C 308.22 104.07 309.85 100.13 313.10 97.86 C 315.67 96.86 318.25 98.57 320.68 99.29 C 323.12 100.41 326.13 100.95 327.85 103.18 C 329.61 107.27 327.11 112.05 328.79 116.15 C 331.64 120.01 337.01 117.14 340.97 117.62 C 344.37 117.26 345.58 120.91 346.68 123.38 C 347.69 126.18 349.43 128.95 349.27 132.00 C 347.72 136.36 342.09 137.71 340.56 142.06 C 339.96 146.64 345.29 148.35 347.76 151.29 C 350.89 153.95 348.25 158.04 347.27 161.10 C 346.00 163.93 345.10 168.73 341.00 168.19 C 337.38 168.49 333.02 166.29 329.96 168.93 C 326.89 173.14 331.40 179.11 328.29 183.31 C 324.63 185.83 320.34 187.58 316.05 188.70 C 310.58 188.34 309.50 180.32 304.00 180.01 C 299.02 181.04 297.94 187.85 293.02 189.06 C 288.46 188.24 283.93 186.48 280.03 184.00 C 277.10 179.82 281.06 173.98 278.20 169.79 C 274.06 166.11 267.53 171.19 263.35 167.69 C 261.07 163.72 258.99 159.38 258.18 154.86 C 259.36 150.09 266.30 149.07 266.81 143.98 C 266.02 138.92 259.26 137.76 257.79 133.02 C 257.93 129.97 259.44 127.21 260.45 124.38 C 261.36 122.44 261.92 119.93 264.05 118.95 C 267.95 118.22 271.96 119.51 275.85 118.72 C 282.25 115.40 274.19 105.84 280.35 102.36 C 283.24 100.82 286.27 99.53 289.34 98.41 M 298.38 126.53 C 290.59 128.82 285.10 136.94 285.93 145.04 C 286.46 153.01 293.04 160.06 300.97 161.11 C 308.36 162.40 316.24 158.34 319.52 151.60 C 322.95 145.11 321.71 136.61 316.63 131.33 C 312.12 126.41 304.73 124.52 298.38 126.53 Z" />
    </g>
    <g id="#f7f8f9ff">
        <path fill="#f7f8f9" opacity="1.00" d=" M 223.20 111.15 C 225.99 110.75 228.57 113.14 228.26 115.98 C 228.32 123.65 228.58 131.36 228.12 139.02 C 227.69 143.92 219.63 143.91 219.15 139.03 C 218.78 131.35 219.02 123.64 219.02 115.95 C 218.79 113.50 220.71 111.22 223.20 111.15 Z" />
        <path fill="#f7f8f9" opacity="1.00" d=" M 196.26 128.30 C 199.23 126.76 201.75 129.53 203.65 131.44 C 208.00 136.05 212.77 140.26 217.04 144.96 C 219.50 147.30 218.20 151.87 214.92 152.61 C 211.96 153.57 209.79 150.86 207.90 149.07 C 203.57 144.43 198.82 140.17 194.57 135.46 C 192.28 133.28 193.60 129.47 196.26 128.30 Z" />
        <path fill="#f7f8f9" opacity="1.00" d=" M 179.16 154.08 C 183.38 153.08 187.76 153.71 192.05 153.57 C 196.68 153.73 201.40 153.07 205.97 154.04 C 210.05 155.86 208.76 163.05 204.10 162.88 C 196.38 163.10 188.63 163.15 180.91 162.84 C 176.46 162.76 175.44 156.02 179.16 154.08 Z" />
        <path fill="#f7f8f9" opacity="1.00" d=" M 308.27 221.27 C 311.69 220.07 315.43 220.68 319.00 220.56 C 324.29 220.77 329.64 220.11 334.89 220.93 C 339.25 222.11 338.57 229.58 333.98 229.83 C 326.00 230.14 317.95 230.16 309.96 229.82 C 305.86 229.49 304.91 223.25 308.27 221.27 Z" />
        <path fill="#f7f8f9" opacity="1.00" d=" M 299.21 231.20 C 301.05 230.29 303.16 231.10 304.49 232.50 C 308.60 236.40 312.47 240.55 316.58 244.46 C 318.20 246.17 320.18 247.73 321.04 250.00 C 322.06 253.51 317.93 257.01 314.68 255.33 C 311.47 253.28 309.13 250.18 306.39 247.58 C 303.35 244.32 299.88 241.46 297.10 237.97 C 295.19 235.71 296.76 232.29 299.21 231.20 Z" />
        <path fill="#f7f8f9" opacity="1.00" d=" M 288.32 241.29 C 291.16 239.67 295.57 241.40 295.39 245.01 C 295.61 252.66 295.64 260.35 295.38 268.00 C 295.46 272.02 289.75 273.79 287.32 270.76 C 285.55 268.60 286.26 265.53 286.06 262.96 C 286.21 257.27 285.96 251.58 286.14 245.90 C 286.14 244.15 286.60 242.13 288.32 241.29 Z" />
        <path fill="#f7f8f9" opacity="1.00" d=" M 246.40 339.45 C 254.97 337.43 264.17 344.07 264.65 352.92 C 266.00 362.36 256.53 371.20 247.22 369.47 C 238.47 368.24 232.04 358.52 234.91 350.03 C 236.40 344.74 241.04 340.54 246.40 339.45 Z" />
    </g>
    <g id="#fbd277ff">
        <path fill="#fbd277" opacity="1.00" d=" M 207.64 174.54 C 209.51 172.58 212.54 173.10 214.99 172.86 C 219.00 173.03 223.31 172.29 227.11 173.86 C 231.33 177.75 230.47 184.62 234.41 188.72 C 237.80 191.36 241.81 188.40 244.95 186.81 C 248.04 185.13 252.26 182.44 255.38 185.57 C 259.12 189.13 263.45 192.44 265.94 197.03 C 266.60 202.91 260.73 207.13 260.37 212.85 C 260.59 217.20 265.52 218.11 268.82 219.27 C 271.82 220.44 276.37 221.07 276.97 224.92 C 277.55 229.92 277.51 235.02 277.03 240.03 C 276.77 243.68 272.66 244.53 269.86 245.55 C 266.51 246.74 261.44 247.60 261.24 252.03 C 261.67 257.52 266.69 261.52 266.94 267.05 C 266.27 270.17 263.38 272.10 261.32 274.31 C 258.64 276.60 256.35 279.77 252.84 280.79 C 247.06 280.77 242.92 275.06 237.13 275.13 C 232.58 275.98 232.19 281.45 230.77 284.99 C 229.81 287.57 228.93 291.13 225.75 291.67 C 220.88 292.31 215.90 292.21 211.01 291.78 C 207.48 291.59 206.41 287.76 205.46 285.00 C 204.15 281.72 203.78 277.05 199.93 275.72 C 193.52 274.49 188.75 282.68 182.35 280.60 C 177.85 277.27 173.77 273.16 170.44 268.66 C 168.08 261.76 178.37 256.19 174.73 249.34 C 170.74 245.20 164.01 245.90 159.67 242.27 C 158.12 240.59 158.38 238.11 158.20 236.01 C 158.19 232.16 157.94 228.26 158.64 224.45 C 159.56 221.00 163.69 220.45 166.55 219.33 C 169.84 218.17 174.72 217.30 175.12 213.03 C 174.80 207.80 170.41 203.94 169.44 198.87 C 169.06 196.32 171.21 194.43 172.72 192.70 C 175.56 189.94 178.15 186.82 181.49 184.64 C 184.26 183.08 187.22 185.18 189.71 186.37 C 193.18 188.08 197.74 191.71 201.40 188.44 C 204.70 184.43 204.50 178.65 207.64 174.54 M 214.38 208.54 C 207.05 209.69 200.41 214.40 196.94 220.96 C 193.44 227.33 193.10 235.30 195.99 241.96 C 198.94 249.02 205.47 254.43 212.94 256.05 C 221.86 258.17 231.81 254.63 237.35 247.31 C 243.92 239.12 244.18 226.59 237.86 218.18 C 232.67 210.88 223.21 207.00 214.38 208.54 Z" />
    </g>
</svg>
