<?xml version="1.0" encoding="UTF-8" ?>
<!DOCTYPE svg PUBLIC "-//W3C//DTD SVG 1.1//EN" "http://www.w3.org/Graphics/SVG/1.1/DTD/svg11.dtd">
<svg width="512pt" height="512pt" viewBox="0 0 512 512" version="1.1" xmlns="http://www.w3.org/2000/svg">
<g id="#00607fff">
<path fill="#00607f" opacity="1.00" d=" M 249.47 0.00 L 255.99 0.00 C 256.01 10.01 255.96 20.02 256.05 30.02 C 221.12 30.01 186.19 38.18 154.98 53.91 C 128.03 67.41 103.84 86.38 84.27 109.31 C 50.60 148.38 30.99 199.34 30.13 250.94 C 30.02 255.04 30.28 259.43 28.15 263.11 C 24.87 269.46 16.65 272.70 9.96 270.08 C 4.56 268.25 0.81 263.13 0.00 257.58 L 0.00 249.43 C 0.82 223.94 5.07 198.52 13.23 174.34 C 31.52 119.36 69.43 71.38 118.17 40.17 C 157.15 15.02 203.14 1.24 249.47 0.00 Z" />
<path fill="#00607f" opacity="1.00" d=" M 101.55 425.72 C 119.33 422.73 137.06 419.41 154.83 416.39 C 162.69 415.00 170.76 421.01 171.84 428.88 C 173.08 436.17 168.13 443.83 160.95 445.63 C 153.82 447.21 146.57 448.22 139.39 449.53 C 174.38 470.62 215.15 482.04 256.02 481.96 C 255.99 491.98 256.00 501.99 256.00 512.00 L 247.84 512.00 C 203.63 510.29 159.90 497.36 122.17 474.19 C 123.32 481.47 124.93 488.68 125.87 495.99 C 126.61 503.83 120.24 511.09 112.53 512.00 L 110.33 512.00 C 103.70 511.68 97.60 506.69 96.32 500.13 C 92.92 481.48 89.73 462.78 86.39 444.11 C 85.27 438.55 87.49 432.46 92.10 429.10 C 94.79 426.94 98.24 426.24 101.55 425.72 Z" />
</g>
<g id="#08475eff">
<path fill="#08475e" opacity="1.00" d=" M 255.99 0.00 L 268.41 0.00 C 311.02 2.39 353.15 15.01 389.51 37.47 C 388.57 30.28 386.78 23.23 385.99 16.02 C 385.18 8.60 390.80 1.85 397.79 0.00 L 404.08 0.00 C 409.82 1.46 414.77 6.00 415.88 11.94 C 419.26 30.59 422.48 49.29 425.80 67.95 C 427.50 75.87 421.90 84.33 413.95 85.78 C 396.06 89.07 378.13 92.08 360.23 95.32 C 355.39 96.56 349.96 96.09 345.92 92.93 C 340.17 88.86 338.24 80.59 341.30 74.31 C 343.31 70.05 347.40 66.81 352.05 65.96 C 358.71 64.68 365.42 63.64 372.09 62.41 C 337.32 41.25 296.67 30.39 256.05 30.02 C 255.96 20.02 256.01 10.01 255.99 0.00 Z" />
<path fill="#08475e" opacity="1.00" d=" M 484.13 248.02 C 488.06 241.26 497.61 238.85 504.34 242.77 C 508.32 244.78 510.76 248.81 512.00 252.96 L 512.00 269.36 C 509.70 307.33 499.56 344.92 481.20 378.31 C 463.90 410.07 439.78 438.07 411.02 459.98 C 381.68 482.44 347.37 498.38 311.25 506.22 C 297.51 509.35 283.47 510.85 269.44 512.00 L 256.00 512.00 C 256.00 501.99 255.99 491.98 256.02 481.96 C 259.71 481.85 263.39 481.67 267.07 481.46 C 306.57 479.72 345.49 467.07 378.61 445.51 C 408.96 425.85 434.48 398.81 452.34 367.37 C 470.29 335.96 480.41 300.14 481.63 263.99 C 482.18 258.66 480.98 252.76 484.13 248.02 Z" />
</g>
<g id="#e2dff4ff">
<path fill="#e2dff4" opacity="1.00" d=" M 217.81 92.87 C 219.15 86.33 225.24 81.16 231.93 81.05 C 239.96 80.92 248.00 81.04 256.03 81.00 C 256.00 110.98 255.94 140.96 256.06 170.94 C 273.65 170.50 291.19 176.40 305.45 186.61 C 321.60 198.01 333.48 215.28 338.47 234.40 C 341.23 244.03 341.37 254.12 340.88 264.06 C 339.34 280.57 332.79 296.56 322.34 309.44 C 306.55 329.22 281.47 341.60 256.05 341.07 C 255.94 371.05 256.01 401.02 256.02 431.00 C 248.33 430.99 240.65 431.02 232.96 430.99 C 227.99 431.12 223.04 428.67 220.21 424.58 C 218.38 422.08 217.75 418.99 217.06 416.04 C 215.53 409.38 213.90 402.74 212.41 396.07 C 203.99 393.27 195.75 389.95 187.88 385.85 C 180.82 390.18 173.84 394.66 166.70 398.87 C 161.00 402.17 153.27 400.96 148.74 396.20 C 137.73 385.23 126.75 374.23 115.78 363.24 C 111.03 358.71 109.82 350.96 113.14 345.26 C 117.37 338.15 121.84 331.19 126.15 324.12 C 122.00 316.26 118.74 307.97 115.88 299.56 C 107.88 297.71 99.87 295.92 91.91 293.91 C 85.44 292.20 80.75 285.75 81.01 279.07 C 81.02 263.37 80.94 247.66 81.05 231.96 C 81.13 225.27 86.29 219.18 92.82 217.82 C 100.51 216.00 108.21 214.19 115.91 212.41 C 118.71 203.99 122.02 195.73 126.15 187.87 C 121.84 180.81 117.37 173.85 113.15 166.75 C 109.32 160.31 111.60 151.77 117.30 147.21 C 127.82 136.76 138.25 126.22 148.78 115.77 C 153.47 110.80 161.59 109.81 167.36 113.47 C 174.23 117.65 181.04 121.92 187.88 126.15 C 195.75 121.99 204.06 118.76 212.46 115.86 C 214.13 108.17 216.00 100.52 217.81 92.87 M 219.33 179.32 C 198.93 189.04 182.73 207.18 175.56 228.62 C 169.75 245.43 169.50 264.09 174.82 281.05 C 181.37 302.78 197.17 321.40 217.36 331.70 C 229.18 337.57 242.44 341.23 255.70 340.76 C 256.36 330.84 255.87 320.88 255.97 310.95 C 266.78 310.59 277.59 307.65 286.55 301.46 C 300.00 292.50 309.16 277.29 310.50 261.15 C 312.39 243.95 305.13 226.15 292.12 214.80 C 282.24 206.00 269.15 201.36 256.00 201.05 C 255.81 191.13 256.39 181.18 255.71 171.29 C 243.17 170.67 230.64 174.11 219.33 179.32 Z" />
</g>
<g id="#bebcddff">
<path fill="#bebcdd" opacity="1.00" d=" M 256.03 81.00 C 264.03 81.00 272.02 81.01 280.01 80.99 C 284.68 80.77 289.11 83.46 291.81 87.15 C 294.20 90.28 294.68 94.31 295.61 98.02 C 297.03 103.96 298.31 109.93 299.87 115.84 C 308.24 118.53 316.40 121.88 324.18 125.98 C 331.06 121.61 338.00 117.34 344.95 113.09 C 350.75 109.53 358.75 110.75 363.38 115.68 C 374.51 126.81 385.70 137.89 396.76 149.10 C 401.79 154.11 402.25 162.54 398.19 168.29 C 394.13 174.82 390.14 181.38 386.02 187.88 C 390.14 195.63 393.43 203.80 396.15 212.14 C 404.02 214.12 411.97 215.83 419.85 217.81 C 426.10 219.39 431.24 225.47 431.01 232.03 C 430.99 246.35 431.00 260.67 431.00 274.99 C 430.84 278.26 431.53 281.74 430.19 284.84 C 428.39 289.68 423.98 293.38 418.94 294.44 C 411.34 296.25 403.73 297.98 396.15 299.86 C 393.42 308.20 390.14 316.36 386.02 324.12 C 390.01 330.40 393.86 336.76 397.81 343.07 C 402.16 348.88 402.02 357.61 396.81 362.84 C 385.74 374.08 374.53 385.17 363.38 396.32 C 358.74 401.23 350.77 402.46 344.96 398.91 C 338.01 394.66 331.06 390.39 324.18 386.02 C 316.40 390.13 308.22 393.41 299.87 396.18 C 297.90 403.76 296.25 411.43 294.41 419.05 C 293.04 425.61 286.91 431.22 280.05 431.01 C 272.04 430.99 264.03 431.00 256.02 431.00 C 256.01 401.02 255.94 371.05 256.05 341.07 C 281.47 341.60 306.55 329.22 322.34 309.44 C 332.79 296.56 339.34 280.57 340.88 264.06 C 341.37 254.12 341.23 244.03 338.47 234.40 C 333.48 215.28 321.60 198.01 305.45 186.61 C 291.19 176.40 273.65 170.50 256.06 170.94 C 255.94 140.96 256.00 110.98 256.03 81.00 Z" />
</g>
<g id="#f9f9f9ff">
<path fill="#f9f9f9" opacity="1.00" d=" M 219.33 179.32 C 230.64 174.11 243.17 170.67 255.71 171.29 C 256.39 181.18 255.81 191.13 256.00 201.05 C 240.87 200.94 225.89 207.56 215.67 218.69 C 206.56 228.45 201.23 241.63 201.05 254.99 C 200.71 269.27 206.29 283.55 216.19 293.84 C 226.38 304.65 241.10 311.03 255.97 310.95 C 255.87 320.88 256.36 330.84 255.70 340.76 C 242.44 341.23 229.18 337.57 217.36 331.70 C 197.17 321.40 181.37 302.78 174.82 281.05 C 169.50 264.09 169.75 245.43 175.56 228.62 C 182.73 207.18 198.93 189.04 219.33 179.32 Z" />
</g>
</svg>
