<?xml version="1.0" encoding="UTF-8" ?>
<!DOCTYPE svg PUBLIC "-//W3C//DTD SVG 1.1//EN" "http://www.w3.org/Graphics/SVG/1.1/DTD/svg11.dtd">
<svg width="1176pt" height="520pt" viewBox="0 0 1176 520" version="1.1"
    xmlns="http://www.w3.org/2000/svg">
    <g id="#ffffff">
    </g>
    <g id="#ffffff">
        <path fill="#ffffff" opacity="1.00" d=" M 735.47 9.79 C 754.42 7.17 774.14 10.85 790.91 20.04 C 806.49 28.49 819.54 41.47 828.19 56.92 C 836.74 72.07 840.94 89.64 840.15 107.01 C 838.30 144.30 811.29 178.41 776.00 190.02 C 755.89 196.93 733.36 196.12 713.67 188.19 C 683.33 176.31 660.72 147.30 656.15 115.11 C 653.27 94.99 657.17 73.96 667.18 56.27 C 681.04 31.25 707.05 13.38 735.47 9.79 Z" />
        <path fill="#ffffff" opacity="1.00" d=" M 419.19 322.18 C 438.68 321.00 458.65 325.46 475.41 335.58 C 489.74 344.18 501.57 356.85 509.21 371.71 C 517.84 388.29 521.24 407.51 518.94 426.06 C 516.59 446.51 507.16 466.04 492.71 480.69 C 480.38 493.30 464.36 502.34 447.08 506.03 C 428.30 510.11 408.31 507.95 390.63 500.53 C 373.31 493.20 358.41 480.37 348.53 464.39 C 337.53 446.87 332.54 425.54 335.16 404.98 C 337.57 383.79 347.36 363.52 362.44 348.45 C 377.39 333.28 397.87 323.50 419.19 322.18 Z" />
    </g>
    <g id="#ffffff">
        <path fill="#ffffff" opacity="1.00" d=" M 1056.56 9.85 C 1072.14 8.10 1087.96 11.08 1102.58 16.47 C 1124.88 24.70 1144.03 41.80 1153.46 63.78 C 1164.56 89.55 1163.67 120.37 1150.39 145.18 C 1139.29 166.66 1118.97 182.64 1096.07 189.94 C 1066.82 198.78 1037.96 209.17 1010.45 222.53 C 981.59 236.53 954.24 253.86 929.99 274.91 C 906.17 295.36 885.35 319.54 870.01 346.99 C 858.25 367.64 849.75 390.04 843.96 413.05 C 840.01 430.42 835.61 448.05 826.38 463.48 C 812.24 487.84 785.60 503.52 758.00 507.13 C 741.49 509.16 724.38 506.68 709.25 499.71 C 687.60 490.07 670.30 471.47 661.66 449.46 C 658.18 441.59 656.54 433.09 653.74 424.99 C 642.19 387.86 626.72 351.84 606.32 318.69 C 590.25 292.62 571.44 267.92 548.37 247.63 C 517.95 220.57 478.87 202.41 437.98 199.98 C 410.48 198.33 382.87 205.04 358.41 217.49 C 330.37 231.76 305.80 252.23 284.81 275.54 C 253.77 310.32 231.49 351.88 213.30 394.54 C 206.56 410.81 200.36 427.32 194.89 444.07 C 189.02 461.77 177.81 477.66 162.97 488.98 C 146.31 501.81 125.11 509.19 103.99 507.78 C 83.22 506.07 62.61 498.83 46.40 485.55 C 30.78 472.99 19.75 454.88 15.87 435.21 C 11.02 410.76 15.43 384.24 29.31 363.37 C 40.92 345.60 59.16 332.63 79.36 326.42 C 125.50 312.43 171.06 294.45 210.85 266.80 C 239.73 247.00 265.44 222.42 285.85 193.92 C 301.89 171.92 314.22 147.43 324.22 122.18 C 328.52 110.50 332.21 98.61 335.33 86.57 C 340.05 68.99 347.94 51.84 360.65 38.57 C 374.34 24.02 393.23 15.13 412.68 11.43 C 426.16 10.88 439.91 10.82 453.04 14.34 C 473.13 19.42 491.17 31.94 503.08 48.89 C 511.45 60.59 516.93 74.20 519.81 88.26 C 526.11 120.67 536.88 152.33 552.59 181.41 C 572.29 217.89 601.24 249.35 636.19 271.69 C 657.80 285.40 681.11 296.84 705.88 303.53 C 730.57 310.09 756.68 311.51 781.83 306.88 C 807.92 302.24 832.73 291.39 854.46 276.32 C 874.55 262.52 892.01 245.16 907.02 226.02 C 941.44 182.40 964.76 130.78 979.12 77.30 C 983.62 61.65 992.04 47.10 1003.68 35.67 C 1017.84 21.60 1036.67 12.13 1056.56 9.85 Z" />
    </g>
</svg>
