<?xml version="1.0" encoding="UTF-8" ?>
<!DOCTYPE svg PUBLIC "-//W3C//DTD SVG 1.1//EN" "http://www.w3.org/Graphics/SVG/1.1/DTD/svg11.dtd">
<svg width="512pt" height="512pt" viewBox="0 0 512 512" version="1.1"
    xmlns="http://www.w3.org/2000/svg">
    <g id="#ffde17ff">
        <path fill="#ffde17" opacity="1.00" d=" M 32.01 61.99 C 32.41 46.32 46.35 32.41 62.02 32.01 C 110.33 31.99 158.65 32.00 206.96 32.01 C 214.99 46.91 221.00 63.08 222.90 79.98 C 227.12 111.45 218.94 144.65 200.01 170.20 C 199.99 140.45 200.00 110.69 200.00 80.94 C 200.35 77.08 197.79 73.12 193.94 72.26 C 189.16 70.86 183.87 74.95 184.03 79.93 C 183.96 116.25 184.03 152.57 184.00 188.90 C 179.79 192.79 175.43 196.52 170.87 200.00 C 164.58 200.00 158.30 200.01 152.01 199.99 C 151.96 170.63 152.06 141.27 151.96 111.91 C 152.04 107.68 148.25 103.93 144.03 104.01 C 139.80 103.90 135.96 107.63 136.03 111.88 C 135.95 141.25 136.03 170.62 135.99 199.99 C 125.33 200.00 114.67 200.01 104.01 199.99 C 103.96 181.31 104.05 162.62 103.97 143.94 C 104.03 140.09 100.92 136.56 97.10 136.09 C 92.53 135.31 87.91 139.25 88.03 143.90 C 87.95 162.60 88.04 181.30 87.99 199.99 C 83.09 200.29 76.68 198.60 73.44 203.44 C 69.68 208.31 73.74 216.18 79.88 215.96 C 99.68 216.07 119.49 215.94 139.30 216.03 C 132.32 219.40 124.62 220.83 117.07 222.29 C 100.87 224.93 84.13 224.58 68.14 220.79 C 55.41 218.25 43.47 212.93 32.01 206.98 C 32.00 158.65 32.00 110.32 32.01 61.99 Z" />
        <path fill="#ffde17" opacity="1.00" d=" M 256.00 96.01 C 313.91 96.00 371.82 95.99 429.73 96.01 C 431.73 104.15 436.04 111.63 437.22 119.99 C 434.17 120.13 430.84 119.47 428.06 121.05 C 424.76 122.85 423.13 127.14 424.48 130.67 C 425.53 133.78 428.67 135.99 431.95 135.97 C 435.25 136.08 438.54 135.96 441.84 136.00 C 443.53 143.95 444.89 151.95 445.97 160.00 C 382.64 160.00 319.32 160.00 256.00 160.00 C 256.01 138.67 256.04 117.34 256.00 96.01 M 333.34 120.48 C 329.52 121.72 327.16 126.14 328.27 130.00 C 329.10 133.42 332.41 136.00 335.93 135.97 C 341.30 136.02 346.68 136.02 352.06 135.97 C 355.33 135.98 358.48 133.77 359.51 130.65 C 360.86 127.13 359.22 122.84 355.92 121.05 C 352.89 119.36 349.28 120.20 345.99 120.00 C 341.78 120.22 337.46 119.49 333.34 120.48 M 381.37 120.47 C 377.53 121.70 375.14 126.16 376.28 130.03 C 377.12 133.44 380.43 136.01 383.95 135.97 C 389.66 135.98 395.39 136.11 401.10 135.90 C 407.04 135.34 410.16 127.45 406.20 122.98 C 403.33 119.14 398.15 120.08 393.99 120.00 C 389.79 120.22 385.48 119.50 381.37 120.47 Z" />
        <path fill="#ffde17" opacity="1.00" d=" M 357.82 219.84 C 384.24 203.05 420.61 204.04 445.98 222.43 L 446.32 222.69 C 443.50 240.68 439.94 258.64 433.86 275.85 C 424.27 303.07 410.39 328.84 392.27 351.35 C 388.52 356.23 384.13 360.60 380.61 365.68 C 380.34 365.61 379.79 365.49 379.51 365.43 C 352.67 358.57 330.36 336.75 322.94 310.06 C 318.33 293.69 318.91 275.81 324.91 259.87 C 331.07 243.38 342.83 229.06 357.82 219.84 M 391.51 232.70 C 378.69 234.58 366.67 241.23 358.11 250.93 C 348.86 261.30 343.66 275.24 344.09 289.14 C 344.65 294.18 350.65 297.56 355.23 295.28 C 358.89 293.83 360.35 289.67 360.09 285.99 C 360.64 268.05 374.86 251.81 392.51 248.73 C 396.84 247.52 402.20 249.19 405.66 245.63 C 409.11 242.35 408.57 236.11 404.60 233.48 C 400.73 230.89 395.80 232.38 391.51 232.70 Z" />
    </g>
    <g id="#ffbf1fff">
        <path fill="#ffbf1f" opacity="1.00" d=" M 206.96 32.01 C 216.98 32.47 227.61 30.44 237.04 34.77 C 248.06 39.52 255.73 50.97 255.95 62.97 C 256.06 73.98 255.97 84.99 256.00 96.01 C 256.04 117.34 256.01 138.67 256.00 160.00 C 255.99 181.32 256.02 202.65 255.98 223.97 C 256.02 233.08 251.98 242.12 245.07 248.09 C 239.07 253.42 231.00 256.17 223.00 256.00 C 180.67 256.00 138.34 256.00 96.01 256.00 C 85.02 255.97 74.03 256.05 63.04 255.96 C 51.05 255.76 39.64 248.12 34.83 237.16 C 30.43 227.70 32.46 217.03 32.01 206.98 C 43.47 212.93 55.41 218.25 68.14 220.79 C 84.13 224.58 100.87 224.93 117.07 222.29 C 124.62 220.83 132.32 219.40 139.30 216.03 C 162.23 215.94 185.17 216.07 208.11 215.96 C 211.97 216.00 215.47 212.85 215.91 209.04 C 216.57 204.85 213.30 200.54 209.07 200.11 C 206.06 199.86 203.03 200.05 200.01 199.99 C 199.99 190.06 200.00 180.13 200.01 170.20 C 218.94 144.65 227.12 111.45 222.90 79.98 C 221.00 63.08 214.99 46.91 206.96 32.01 Z" />
        <path fill="#ffbf1f" opacity="1.00" d=" M 429.73 96.01 C 439.99 96.59 450.83 94.29 460.57 98.47 C 471.84 103.13 479.93 114.76 479.98 127.00 C 480.02 138.00 479.99 149.00 480.00 160.00 C 468.65 160.00 457.31 160.00 445.97 160.00 C 444.89 151.95 443.53 143.95 441.84 136.00 C 446.01 135.91 451.20 136.87 454.14 133.09 C 457.94 128.89 455.46 121.37 449.91 120.25 C 445.71 119.69 441.44 120.14 437.22 119.99 C 436.04 111.63 431.73 104.15 429.73 96.01 Z" />
        <path fill="#ffbf1f" opacity="1.00" d=" M 170.87 200.00 C 175.43 196.52 179.79 192.79 184.00 188.90 C 183.99 192.59 184.01 196.29 183.99 199.99 C 179.62 200.02 175.24 199.99 170.87 200.00 Z" />
        <path fill="#ffbf1f" opacity="1.00" d=" M 446.32 222.69 C 466.59 237.09 479.58 261.17 479.98 286.08 C 480.01 288.32 480.03 290.57 479.90 292.82 C 478.84 308.81 473.05 324.48 463.13 337.10 C 449.94 354.23 429.53 365.55 408.00 367.59 C 402.68 368.11 397.32 368.11 392.00 367.59 C 388.16 367.21 384.37 366.48 380.61 365.68 C 384.13 360.60 388.52 356.23 392.27 351.35 C 410.39 328.84 424.27 303.07 433.86 275.85 C 439.94 258.64 443.50 240.68 446.32 222.69 Z" />
        <path fill="#ffbf1f" opacity="1.00" d=" M 384.03 407.92 C 383.93 403.64 387.76 399.98 391.99 399.98 C 397.33 400.01 402.67 400.01 408.01 399.98 C 412.22 399.98 416.03 403.62 415.96 407.88 C 416.04 426.60 416.00 445.32 415.98 464.04 C 416.14 471.93 409.63 479.01 401.87 479.95 C 400.62 480.02 399.38 480.03 398.14 479.95 C 390.39 478.98 383.81 471.94 384.01 464.02 C 384.00 445.32 383.97 426.62 384.03 407.92 Z" />
    </g>
    <g id="#ffffffff">
        <path fill="#ffffff" opacity="1.00" d=" M 184.03 79.93 C 183.87 74.95 189.16 70.86 193.94 72.26 C 197.79 73.12 200.35 77.08 200.00 80.94 C 200.00 110.69 199.99 140.45 200.01 170.20 C 200.00 180.13 199.99 190.06 200.01 199.99 C 203.03 200.05 206.06 199.86 209.07 200.11 C 213.30 200.54 216.57 204.85 215.91 209.04 C 215.47 212.85 211.97 216.00 208.11 215.96 C 185.17 216.07 162.23 215.94 139.30 216.03 C 119.49 215.94 99.68 216.07 79.88 215.96 C 73.74 216.18 69.68 208.31 73.44 203.44 C 76.68 198.60 83.09 200.29 87.99 199.99 C 88.04 181.30 87.95 162.60 88.03 143.90 C 87.91 139.25 92.53 135.31 97.10 136.09 C 100.92 136.56 104.03 140.09 103.97 143.94 C 104.05 162.62 103.96 181.31 104.01 199.99 C 114.67 200.01 125.33 200.00 135.99 199.99 C 136.03 170.62 135.95 141.25 136.03 111.88 C 135.96 107.63 139.80 103.90 144.03 104.01 C 148.25 103.93 152.04 107.68 151.96 111.91 C 152.06 141.27 151.96 170.63 152.01 199.99 C 158.30 200.01 164.58 200.00 170.87 200.00 C 175.24 199.99 179.62 200.02 183.99 199.99 C 184.01 196.29 183.99 192.59 184.00 188.90 C 184.03 152.57 183.96 116.25 184.03 79.93 Z" />
        <path fill="#ffffff" opacity="1.00" d=" M 333.34 120.48 C 337.46 119.49 341.78 120.22 345.99 120.00 C 349.28 120.20 352.89 119.36 355.92 121.05 C 359.22 122.84 360.86 127.13 359.51 130.65 C 358.48 133.77 355.33 135.98 352.06 135.97 C 346.68 136.02 341.30 136.02 335.93 135.97 C 332.41 136.00 329.10 133.42 328.27 130.00 C 327.16 126.14 329.52 121.72 333.34 120.48 Z" />
        <path fill="#ffffff" opacity="1.00" d=" M 381.37 120.47 C 385.48 119.50 389.79 120.22 393.99 120.00 C 398.15 120.08 403.33 119.14 406.20 122.98 C 410.16 127.45 407.04 135.34 401.10 135.90 C 395.39 136.11 389.66 135.98 383.95 135.97 C 380.43 136.01 377.12 133.44 376.28 130.03 C 375.14 126.16 377.53 121.70 381.37 120.47 Z" />
        <path fill="#ffffff" opacity="1.00" d=" M 428.06 121.05 C 430.84 119.47 434.17 120.13 437.22 119.99 C 441.44 120.14 445.71 119.69 449.91 120.25 C 455.46 121.37 457.94 128.89 454.14 133.09 C 451.20 136.87 446.01 135.91 441.84 136.00 C 438.54 135.96 435.25 136.08 431.95 135.97 C 428.67 135.99 425.53 133.78 424.48 130.67 C 423.13 127.14 424.76 122.85 428.06 121.05 Z" />
        <path fill="#ffffff" opacity="1.00" d=" M 391.51 232.70 C 395.80 232.38 400.73 230.89 404.60 233.48 C 408.57 236.11 409.11 242.35 405.66 245.63 C 402.20 249.19 396.84 247.52 392.51 248.73 C 374.86 251.81 360.64 268.05 360.09 285.99 C 360.35 289.67 358.89 293.83 355.23 295.28 C 350.65 297.56 344.65 294.18 344.09 289.14 C 343.66 275.24 348.86 261.30 358.11 250.93 C 366.67 241.23 378.69 234.58 391.51 232.70 Z" />
        <path fill="#ffffff" opacity="1.00" d=" M 141.35 320.47 C 142.85 319.91 144.47 320.01 146.04 319.99 C 180.05 320.03 214.05 319.96 248.06 320.03 C 252.31 319.93 256.09 323.77 255.98 328.01 C 256.07 332.24 252.32 336.03 248.09 335.97 C 213.71 336.04 179.34 335.98 144.97 336.00 C 141.35 336.32 137.62 334.15 136.47 330.65 C 134.94 326.66 137.29 321.77 141.35 320.47 Z" />
        <path fill="#ffffff" opacity="1.00" d=" M 141.33 352.48 C 142.80 351.92 144.41 352.01 145.96 351.99 C 180.00 352.03 214.04 351.96 248.08 352.03 C 253.06 351.89 257.16 357.19 255.72 361.98 C 254.83 365.85 250.82 368.39 246.94 368.00 C 212.62 367.98 178.31 368.04 143.99 367.98 C 139.71 368.08 135.88 364.23 136.02 359.95 C 135.99 356.67 138.21 353.52 141.33 352.48 Z" />
        <path fill="#ffffff" opacity="1.00" d=" M 392.00 367.59 C 397.32 368.11 402.68 368.11 408.00 367.59 C 408.00 378.39 407.99 389.18 408.01 399.98 C 402.67 400.01 397.33 400.01 391.99 399.98 C 392.00 389.18 392.00 378.39 392.00 367.59 Z" />
        <path fill="#ffffff" opacity="1.00" d=" M 141.34 384.48 C 142.81 383.92 144.41 384.01 145.96 383.99 C 169.34 384.03 192.72 383.96 216.10 384.03 C 220.34 383.95 224.08 387.78 223.98 392.01 C 224.06 396.24 220.31 400.05 216.07 399.97 C 192.36 400.04 168.64 399.98 144.93 400.00 C 141.31 400.32 137.59 398.12 136.45 394.60 C 134.96 390.63 137.30 385.78 141.34 384.48 Z" />
    </g>
    <g id="#1aa3ffff">
        <path fill="#1aa3ff" opacity="1.00" d=" M 256.00 160.00 C 319.32 160.00 382.64 160.00 445.97 160.00 C 448.49 180.69 448.92 201.77 445.98 222.43 C 420.61 204.04 384.24 203.05 357.82 219.84 C 342.83 229.06 331.07 243.38 324.91 259.87 C 318.91 275.81 318.33 293.69 322.94 310.06 C 330.36 336.75 352.67 358.57 379.51 365.43 C 377.03 369.21 373.77 372.41 370.39 375.40 C 344.77 400.74 313.45 420.22 279.64 432.61 C 230.69 450.44 176.22 452.95 125.93 439.25 C 115.68 436.97 106.01 432.76 96.02 429.67 C 95.98 371.78 96.00 313.89 96.01 256.00 C 138.34 256.00 180.67 256.00 223.00 256.00 C 231.00 256.17 239.07 253.42 245.07 248.09 C 251.98 242.12 256.02 233.08 255.98 223.97 C 256.02 202.65 255.99 181.32 256.00 160.00 M 141.35 320.47 C 137.29 321.77 134.94 326.66 136.47 330.65 C 137.62 334.15 141.35 336.32 144.97 336.00 C 179.34 335.98 213.71 336.04 248.09 335.97 C 252.32 336.03 256.07 332.24 255.98 328.01 C 256.09 323.77 252.31 319.93 248.06 320.03 C 214.05 319.96 180.05 320.03 146.04 319.99 C 144.47 320.01 142.85 319.91 141.35 320.47 M 141.33 352.48 C 138.21 353.52 135.99 356.67 136.02 359.95 C 135.88 364.23 139.71 368.08 143.99 367.98 C 178.31 368.04 212.62 367.98 246.94 368.00 C 250.82 368.39 254.83 365.85 255.72 361.98 C 257.16 357.19 253.06 351.89 248.08 352.03 C 214.04 351.96 180.00 352.03 145.96 351.99 C 144.41 352.01 142.80 351.92 141.33 352.48 M 141.34 384.48 C 137.30 385.78 134.96 390.63 136.45 394.60 C 137.59 398.12 141.31 400.32 144.93 400.00 C 168.64 399.98 192.36 400.04 216.07 399.97 C 220.31 400.05 224.06 396.24 223.98 392.01 C 224.08 387.78 220.34 383.95 216.10 384.03 C 192.72 383.96 169.34 384.03 145.96 383.99 C 144.41 384.01 142.81 383.92 141.34 384.48 Z" />
    </g>
    <g id="#0082edff">
        <path fill="#0082ed" opacity="1.00" d=" M 445.97 160.00 C 457.31 160.00 468.65 160.00 480.00 160.00 C 479.99 202.03 480.03 244.05 479.98 286.08 C 479.58 261.17 466.59 237.09 446.32 222.69 L 445.98 222.43 C 448.92 201.77 448.49 180.69 445.97 160.00 Z" />
        <path fill="#0082ed" opacity="1.00" d=" M 463.13 337.10 C 473.05 324.48 478.84 308.81 479.90 292.82 C 480.13 344.19 479.93 395.58 480.00 446.95 C 480.29 456.86 475.83 466.82 468.02 472.96 C 462.17 477.74 454.57 480.14 447.04 480.00 C 431.99 479.97 416.93 480.06 401.87 479.95 C 409.63 479.01 416.14 471.93 415.98 464.04 C 416.00 445.32 416.04 426.60 415.96 407.88 C 416.03 403.62 412.22 399.98 408.01 399.98 C 407.99 389.18 408.00 378.39 408.00 367.59 C 429.53 365.55 449.94 354.23 463.13 337.10 Z" />
        <path fill="#0082ed" opacity="1.00" d=" M 379.51 365.43 C 379.79 365.49 380.34 365.61 380.61 365.68 C 384.37 366.48 388.16 367.21 392.00 367.59 C 392.00 378.39 392.00 389.18 391.99 399.98 C 387.76 399.98 383.93 403.64 384.03 407.92 C 383.97 426.62 384.00 445.32 384.01 464.02 C 383.81 471.94 390.39 478.98 398.14 479.95 C 308.42 480.06 218.70 479.97 128.98 480.00 C 120.75 480.21 112.47 477.22 106.41 471.62 C 100.10 465.90 96.25 457.57 96.04 449.06 C 95.95 442.59 96.01 436.13 96.02 429.67 C 106.01 432.76 115.68 436.97 125.93 439.25 C 176.22 452.95 230.69 450.44 279.64 432.61 C 313.45 420.22 344.77 400.74 370.39 375.40 C 373.77 372.41 377.03 369.21 379.51 365.43 Z" />
    </g>
</svg>
