<?xml version="1.0" encoding="UTF-8" ?>
<!DOCTYPE svg PUBLIC "-//W3C//DTD SVG 1.1//EN" "http://www.w3.org/Graphics/SVG/1.1/DTD/svg11.dtd">
<svg width="512pt" height="512pt" viewBox="0 0 512 512" version="1.1"
    xmlns="http://www.w3.org/2000/svg">
    <g id="#6cf5c2ff">
        <path fill="#6cf5c2" opacity="1.00" d=" M 236.10 48.96 C 236.84 39.83 244.62 31.91 253.74 31.04 C 258.80 32.85 263.70 35.82 266.46 40.58 C 270.97 47.83 270.04 57.95 264.22 64.22 C 261.42 67.53 257.36 69.27 253.46 70.89 C 251.61 70.44 249.79 69.87 248.01 69.21 C 240.24 65.93 235.15 57.36 236.10 48.96 Z" />
        <path fill="#6cf5c2" opacity="1.00" d=" M 331.26 98.81 C 334.66 90.85 343.57 85.74 352.17 86.90 C 350.94 86.90 348.48 86.92 347.25 86.92 C 352.37 88.88 357.43 91.84 360.14 96.80 C 364.54 104.14 363.42 114.26 357.47 120.41 C 354.72 123.52 350.83 125.16 347.13 126.82 C 340.32 125.60 334.01 121.29 331.26 114.80 C 329.14 109.72 329.16 103.90 331.26 98.81 Z" />
        <path fill="#6cf5c2" opacity="1.00" d=" M 142.50 107.00 C 142.19 97.18 150.18 88.13 159.89 86.96 C 167.84 89.11 174.72 95.75 175.64 104.17 C 177.34 114.65 168.94 126.01 158.16 126.43 C 149.38 124.38 142.40 116.13 142.50 107.00 Z" />
    </g>
    <g id="#00e499ff">
        <path fill="#00e499" opacity="1.00" d=" M 253.74 31.04 C 262.27 29.64 271.04 34.87 274.42 42.71 C 279.01 52.47 274.13 65.41 264.00 69.36 C 260.66 70.72 257.03 71.13 253.46 70.89 C 257.36 69.27 261.42 67.53 264.22 64.22 C 270.04 57.95 270.97 47.83 266.46 40.58 C 263.70 35.82 258.80 32.85 253.74 31.04 Z" />
        <path fill="#00e499" opacity="1.00" d=" M 159.89 86.96 C 168.60 85.44 177.61 90.77 181.01 98.81 C 183.02 103.94 183.03 109.68 181.01 114.81 C 177.38 123.42 167.32 128.82 158.16 126.43 C 168.94 126.01 177.34 114.65 175.64 104.17 C 174.72 95.75 167.84 89.11 159.89 86.96 Z" />
        <path fill="#00e499" opacity="1.00" d=" M 347.25 86.92 C 348.48 86.92 350.94 86.90 352.17 86.90 C 360.23 87.64 367.30 94.07 369.13 101.92 C 370.62 106.97 369.54 112.51 366.97 117.02 C 363.03 123.80 354.94 127.93 347.13 126.82 C 350.83 125.16 354.72 123.52 357.47 120.41 C 363.42 114.26 364.54 104.14 360.14 96.80 C 357.43 91.84 352.37 88.88 347.25 86.92 Z" />
    </g>
    <g id="#a59daaff">
        <path fill="#a59daa" opacity="1.00" d=" M 248.01 69.21 C 249.79 69.87 251.61 70.44 253.46 70.89 C 257.03 71.13 260.66 70.72 264.00 69.36 C 263.99 111.62 264.00 153.88 263.99 196.14 C 258.66 196.14 253.33 196.14 248.01 196.14 C 248.00 153.83 248.00 111.52 248.01 69.21 Z" />
        <path fill="#a59daa" opacity="1.00" d=" M 181.01 98.81 C 192.68 98.82 204.36 98.75 216.03 98.83 C 220.46 98.59 224.48 102.53 224.28 106.98 C 224.35 136.69 224.30 166.41 224.30 196.13 C 218.97 196.13 213.64 196.16 208.31 196.12 C 208.31 169.01 208.32 141.91 208.31 114.80 C 199.21 114.80 190.11 114.78 181.01 114.81 C 183.03 109.68 183.02 103.94 181.01 98.81 Z" />
        <path fill="#a59daa" opacity="1.00" d=" M 287.72 106.95 C 287.52 102.47 291.61 98.55 296.06 98.83 C 307.79 98.76 319.52 98.81 331.26 98.81 C 329.16 103.90 329.14 109.72 331.26 114.80 C 322.07 114.80 312.88 114.80 303.69 114.80 C 303.67 141.93 303.71 169.07 303.67 196.20 C 298.34 195.98 293.02 196.22 287.70 196.14 C 287.71 166.41 287.65 136.67 287.72 106.95 Z" />
        <path fill="#a59daa" opacity="1.00" d=" M 53.93 181.22 C 63.55 186.26 73.23 191.20 82.81 196.32 C 85.64 197.71 87.34 200.83 87.16 203.95 C 87.18 221.52 87.16 239.09 87.16 256.66 C 81.83 256.66 76.50 256.66 71.17 256.66 C 71.17 240.52 71.18 224.38 71.17 208.23 C 61.80 203.42 52.52 198.43 43.11 193.69 C 48.22 191.19 52.27 186.69 53.93 181.22 Z" />
        <path fill="#a59daa" opacity="1.00" d=" M 98.41 196.55 C 108.16 191.37 118.00 186.36 127.76 181.20 C 129.49 186.66 133.52 191.24 138.72 193.66 C 129.16 198.29 119.86 203.42 110.42 208.29 C 110.45 224.41 110.44 240.54 110.42 256.66 C 105.30 256.66 100.17 256.66 95.04 256.66 L 94.44 256.66 C 94.44 239.09 94.43 221.53 94.44 203.96 C 94.30 201.00 95.74 197.97 98.41 196.55 Z" />
        <path fill="#a59daa" opacity="1.00" d=" M 373.38 193.70 C 378.59 191.28 382.55 186.68 384.42 181.28 C 393.50 185.97 402.54 190.74 411.63 195.43 C 414.73 196.76 417.56 199.50 417.52 203.10 C 417.61 220.95 417.53 238.81 417.56 256.66 L 416.91 256.66 C 411.79 256.66 406.68 256.66 401.58 256.66 C 401.55 240.52 401.57 224.38 401.57 208.24 C 392.16 203.42 382.88 198.33 373.38 193.70 Z" />
        <path fill="#a59daa" opacity="1.00" d=" M 429.29 196.28 C 438.92 191.25 448.55 186.20 458.21 181.20 C 459.93 186.62 463.90 191.13 468.99 193.64 C 459.54 198.39 450.23 203.42 440.83 208.26 C 440.82 224.39 440.83 240.53 440.82 256.66 C 435.50 256.66 430.17 256.66 424.84 256.66 C 424.83 239.09 424.83 221.52 424.84 203.95 C 424.65 200.78 426.39 197.63 429.29 196.28 Z" />
        <path fill="#a59daa" opacity="1.00" d=" M 231.10 230.25 C 247.07 229.66 263.07 229.98 279.05 229.97 C 281.71 229.77 283.09 232.65 282.90 234.94 C 282.87 249.63 283.04 264.32 282.80 279.00 C 283.13 281.72 280.56 283.77 278.00 283.58 C 263.33 283.63 248.66 283.63 233.99 283.58 C 231.48 283.75 228.83 281.77 229.21 279.06 C 229.16 264.35 229.22 249.62 229.18 234.91 C 228.91 233.05 229.89 231.54 231.10 230.25 M 251.36 247.56 C 248.15 249.11 245.89 252.47 245.71 256.04 C 245.20 261.39 249.57 266.52 254.91 266.94 C 261.04 268.00 266.94 262.21 266.30 256.08 C 266.28 248.93 257.57 243.73 251.36 247.56 Z" />
    </g>
    <g id="#60b7ffff">
        <path fill="#60b7ff" opacity="1.00" d=" M 143.24 155.66 C 151.02 153.80 159.55 157.75 163.81 164.39 C 168.34 171.14 168.10 180.64 163.26 187.17 C 159.25 192.83 152.30 195.92 145.42 195.59 C 149.22 193.09 153.54 191.03 156.28 187.24 C 160.36 181.88 161.31 174.40 158.89 168.13 C 156.39 161.57 150.22 156.57 143.24 155.66 Z" />
        <path fill="#60b7ff" opacity="1.00" d=" M 361.18 155.59 C 369.20 153.78 378.06 157.73 382.25 164.77 C 385.42 169.60 385.78 175.80 384.42 181.28 C 382.55 186.68 378.59 191.28 373.38 193.70 C 370.33 195.21 366.86 195.53 363.51 195.55 C 367.37 193.17 371.63 191.08 374.39 187.36 C 379.38 180.97 379.74 171.45 375.34 164.67 C 372.35 159.85 367.21 156.53 361.61 155.68 L 361.18 155.59 Z" />
        <path fill="#60b7ff" opacity="1.00" d=" M 34.16 155.05 C 39.35 155.17 44.61 156.94 48.40 160.58 C 53.92 165.65 56.48 174.06 53.93 181.22 C 52.27 186.69 48.22 191.19 43.11 193.69 C 40.06 195.15 36.63 195.50 33.30 195.56 C 37.30 192.95 41.84 190.72 44.55 186.60 C 48.96 180.33 49.18 171.47 45.11 164.97 C 42.51 160.65 37.95 158.16 34.16 155.05 Z" />
        <path fill="#60b7ff" opacity="1.00" d=" M 476.31 155.11 C 483.40 154.97 490.62 158.44 494.35 164.59 C 498.55 171.02 498.53 179.88 494.29 186.29 C 490.43 192.60 482.86 196.05 475.56 195.58 C 479.84 193.02 484.63 190.70 487.34 186.30 C 491.77 179.72 491.68 170.49 487.09 164.01 C 484.39 160.09 480.07 157.84 476.31 155.11 Z" />
    </g>
    <g id="#8ac9feff">
        <path fill="#8ac9fe" opacity="1.00" d=" M 20.39 161.42 C 23.95 157.57 29.08 155.79 34.16 155.05 C 37.95 158.16 42.51 160.65 45.11 164.97 C 49.18 171.47 48.96 180.33 44.55 186.60 C 41.84 190.72 37.30 192.95 33.30 195.56 C 27.41 194.58 21.60 191.78 18.25 186.67 C 12.83 179.15 13.79 167.93 20.39 161.42 Z" />
        <path fill="#8ac9fe" opacity="1.00" d=" M 127.76 181.20 C 124.09 170.21 131.93 157.64 143.24 155.66 C 150.22 156.57 156.39 161.57 158.89 168.13 C 161.31 174.40 160.36 181.88 156.28 187.24 C 153.54 191.03 149.22 193.09 145.42 195.59 C 143.16 195.04 140.86 194.58 138.72 193.66 C 133.52 191.24 129.49 186.66 127.76 181.20 Z" />
        <path fill="#8ac9fe" opacity="1.00" d=" M 345.48 179.15 C 343.12 168.60 350.96 157.29 361.61 155.68 C 367.21 156.53 372.35 159.85 375.34 164.67 C 379.74 171.45 379.38 180.97 374.39 187.36 C 371.63 191.08 367.37 193.17 363.51 195.55 C 354.88 194.40 347.00 187.92 345.48 179.15 Z" />
        <path fill="#8ac9fe" opacity="1.00" d=" M 464.84 159.86 C 468.08 157.10 472.25 156.00 476.31 155.11 C 480.07 157.84 484.39 160.09 487.09 164.01 C 491.68 170.49 491.77 179.72 487.34 186.30 C 484.63 190.70 479.84 193.02 475.56 195.58 C 473.35 194.99 471.10 194.53 468.99 193.64 C 463.90 191.13 459.93 186.62 458.21 181.20 C 455.87 173.60 458.58 164.77 464.84 159.86 Z" />
    </g>
    <g id="#837683ff">
        <path fill="#837683" opacity="1.00" d=" M 195.49 205.00 C 195.32 201.05 198.18 197.20 202.08 196.38 C 204.13 196.01 206.23 196.14 208.31 196.12 C 213.64 196.16 218.97 196.13 224.30 196.13 C 232.20 196.13 240.10 196.13 248.01 196.14 C 253.33 196.14 258.66 196.14 263.99 196.14 C 271.89 196.13 279.79 196.13 287.70 196.14 C 293.02 196.22 298.34 195.98 303.67 196.20 C 304.63 196.46 305.59 196.73 306.56 197.02 C 306.60 230.02 306.51 263.01 306.60 296.01 C 306.63 299.33 306.18 303.14 303.29 305.26 C 300.71 307.40 297.14 307.13 294.00 307.24 C 264.01 307.10 234.01 307.26 204.01 307.16 C 201.09 307.16 198.17 307.31 195.25 307.52 C 195.36 306.32 195.44 305.13 195.47 303.94 C 195.49 270.96 195.45 237.98 195.49 205.00 M 231.10 230.25 C 229.89 231.54 228.91 233.05 229.18 234.91 C 229.22 249.62 229.16 264.35 229.21 279.06 C 228.83 281.77 231.48 283.75 233.99 283.58 C 248.66 283.63 263.33 283.63 278.00 283.58 C 280.56 283.77 283.13 281.72 282.80 279.00 C 283.04 264.32 282.87 249.63 282.90 234.94 C 283.09 232.65 281.71 229.77 279.05 229.97 C 263.07 229.98 247.07 229.66 231.10 230.25 Z" />
    </g>
    <g id="#685e68ff">
        <path fill="#685e68" opacity="1.00" d=" M 303.67 196.20 C 306.63 196.08 309.98 195.42 312.58 197.30 C 315.52 199.07 316.93 202.58 316.81 205.91 C 316.78 239.96 316.82 274.01 316.78 308.05 C 316.86 311.78 314.52 315.44 311.02 316.79 C 308.74 317.39 306.36 317.38 304.02 317.39 C 270.72 317.29 237.41 317.50 204.10 317.29 C 198.94 317.52 194.78 312.53 195.25 307.52 C 198.17 307.31 201.09 307.16 204.01 307.16 C 234.01 307.26 264.01 307.10 294.00 307.24 C 297.14 307.13 300.71 307.40 303.29 305.26 C 306.18 303.14 306.63 299.33 306.60 296.01 C 306.51 263.01 306.60 230.02 306.56 197.02 C 305.59 196.73 304.63 196.46 303.67 196.20 Z" />
    </g>
    <g id="#ffe076ff">
        <path fill="#ffe076" opacity="1.00" d=" M 251.36 247.56 C 257.57 243.73 266.28 248.93 266.30 256.08 C 266.94 262.21 261.04 268.00 254.91 266.94 C 249.57 266.52 245.20 261.39 245.71 256.04 C 245.89 252.47 248.15 249.11 251.36 247.56 Z" />
        <path fill="#ffe076" opacity="1.00" d=" M 110.42 256.66 C 123.63 256.67 136.83 256.66 150.04 256.67 C 149.98 281.90 159.32 307.00 175.93 326.00 C 192.62 345.35 216.50 358.34 241.86 361.63 C 265.44 364.83 290.08 359.88 310.45 347.53 C 332.75 334.23 349.83 312.46 357.33 287.59 C 360.41 277.58 361.88 267.12 361.96 256.67 C 375.16 256.66 388.37 256.67 401.58 256.66 C 406.68 256.66 411.79 256.66 416.91 256.66 C 419.55 256.66 422.19 256.66 424.84 256.66 C 430.17 256.66 435.50 256.66 440.82 256.66 C 454.10 256.85 467.36 256.26 480.63 256.49 C 480.77 266.66 480.61 276.84 480.71 287.01 C 468.38 292.05 455.82 296.54 443.46 301.51 C 438.53 321.19 430.80 340.18 420.17 357.48 C 425.52 369.61 431.15 381.65 436.20 393.90 C 422.13 408.51 407.53 422.66 393.22 437.06 C 381.13 431.57 369.09 425.97 356.90 420.70 C 340.43 430.96 322.33 438.58 303.52 443.32 C 302.42 443.75 300.75 443.72 300.39 445.12 C 295.79 457.11 291.13 469.08 286.58 481.09 C 266.26 481.15 245.94 481.01 225.62 481.07 C 220.83 468.68 216.10 456.27 211.29 443.90 C 191.55 439.13 172.61 431.25 155.27 420.69 C 143.21 426.37 130.90 431.50 118.78 437.06 C 104.62 422.50 90.16 408.24 75.82 393.85 C 81.21 381.71 86.62 369.57 92.00 357.43 C 81.35 340.11 73.49 321.10 68.74 301.34 C 56.36 296.50 43.92 291.81 31.55 286.96 C 31.55 276.86 31.54 266.76 31.55 256.67 C 44.76 256.66 57.97 256.67 71.17 256.66 C 76.50 256.66 81.83 256.66 87.16 256.66 C 89.79 256.66 92.41 256.66 95.04 256.66 C 100.17 256.66 105.30 256.66 110.42 256.66 Z" />
    </g>
</svg>
